<?xml version="1.0" encoding="UTF-8"?> <svg xmlns="http://www.w3.org/2000/svg" fill="none" height="44" viewBox="0 0 44 44" width="44"><rect fill="#ffefee" height="44" rx="22" width="44"></rect><path clip-rule="evenodd" d="m13.9285 21.0625h3.4165c.1803-2.5927 1.082-4.6953 1.9761-6.1855.1478-.2463.2956-.4764.4404-.6897-3.1083.8889-5.4547 3.5827-5.833 6.8752zm3.4165 1.875h-3.4165c.3783 3.2925 2.7247 5.9864 5.8331 6.8752-.1448-.2133-.2927-.4434-.4405-.6898-.8941-1.4903-1.7958-3.5928-1.9761-6.1854zm1.8803 0h5.5493c-.1756 2.1694-.9359 3.9414-1.7035 5.2208-.3828.638-.7649 1.1488-1.0711 1.5194-.3062-.3706-.6883-.8814-1.0711-1.5194-.7676-1.2794-1.5279-3.0514-1.7036-5.2208zm5.5494-1.875h-5.5494c.1757-2.1694.936-3.9415 1.7036-5.2208.3828-.6381.7649-1.149 1.0711-1.5196.3062.3706.6883.8815 1.0711 1.5196.7676 1.2793 1.5279 3.0514 1.7036 5.2208zm1.8803 1.875c-.1803 2.5926-1.082 4.6951-1.9761 6.1854-.1478.2464-.2957.4765-.4405.6898 3.1084-.8888 5.4549-3.5827 5.8331-6.8752zm3.4165-1.875h-3.4165c-.1803-2.5927-1.082-4.6953-1.9761-6.1855-.1478-.2463-.2956-.4764-.4404-.6897 3.1084.8889 5.4548 3.5827 5.833 6.8752zm-8.0715-9.0625c-5.5229 0-10 4.4771-10 10s4.4771 10 10 10 10-4.4771 10-10-4.4771-10-10-10z" fill="#d42a32" fill-rule="evenodd"></path></svg> 